{
.appVersion = "3091";
.formatVersion = 3;
DisplayStrings = (
o
);
customParameters = (
{
name = glyphOrder;
value = (
A,
B,
C,
D,
E,
G,
H,
I,
J,
K,
L,
M,
N,
O,
P,
Q,
R,
S,
T,
U,
V,
W,
X,
Y,
Z,
F,
space,
comma,
period,
a,
b,
o,
d,
c,
e,
f,
g,
h,
i,
j,
k,
l,
m,
n,
p,
q,
r,
s,
t,
u,
v,
w,
x,
y,
z
);
},
{
name = macintoshFONDFamilyID;
value = 128;
},
{
name = macintoshFONDName;
value = Verses;
},
{
name = openTypeHeadFlags;
value = (
);
},
{
name = preferredFamilyName;
value = Verses;
},
{
name = versionString;
value = "1.000";
},
{
name = openTypeOS2FamilyClass;
value = (
0,
0
);
},
{
name = panose;
value = (
0,
0,
0,
0,
0,
0,
0,
0,
0,
0
);
},
{
name = openTypeOS2Selection;
value = (
);
},
{
name = openTypeOS2SubscriptXOffset;
value = 0;
},
{
name = openTypeOS2SubscriptXSize;
value = 700;
},
{
name = openTypeOS2SubscriptYOffset;
value = 140;
},
{
name = openTypeOS2SubscriptYSize;
value = 650;
},
{
name = openTypeOS2SuperscriptXOffset;
value = 0;
},
{
name = openTypeOS2SuperscriptXSize;
value = 700;
},
{
name = openTypeOS2SuperscriptYOffset;
value = 477;
},
{
name = openTypeOS2SuperscriptYSize;
value = 650;
},
{
name = fsType;
value = (
2
);
},
{
name = vendorID;
value = pyrs;
},
{
name = blueFuzz;
value = 1;
},
{
name = blueScale;
value = 0.03963;
},
{
name = blueShift;
value = 7;
},
{
name = postscriptForceBold;
value = 0;
},
{
name = postscriptIsFixedPitch;
value = 0;
},
{
name = postscriptUniqueID;
value = -1;
},
{
name = year;
value = 0;
}
);
date = "2015-01-21 18:21:05 +0000";
familyName = Verses;
fontMaster = (
{
customParameters = (
{
name = typoAscender;
value = 620;
},
{
name = typoDescender;
value = -430;
},
{
name = typoLineGap;
value = 9;
},
{
name = hheaAscender;
value = 750;
},
{
name = hheaDescender;
value = -250;
},
{
name = hheaLineGap;
value = 9;
},
{
name = winAscent;
value = 629;
},
{
name = winDescent;
value = 439;
},
{
name = strikeoutPosition;
value = 250;
},
{
name = strikeoutSize;
value = 50;
},
{
name = underlineThickness;
value = 50;
},
{

glyphs = (
{
glyphname = A;
layers = (
{
layerId = master01;
shapes = (
{
closed = 1;
nodes = (
(400,600,l),
(100,0,l),
(150,0,l),
(176,55,l),
(622,56,l),
(650,0,l),
(700,0,l)
);
},
{
closed = 1;
nodes = (
(602,95,l),
(196,95,l),
(400,500,l)
);
}
);
userData = {
com.typemytype.robofont.guides = (
{
angle = 0;
isGlobal = 0;
magnetic = 5;
x = 0;
y = 300;
},
{
angle = 0;
isGlobal = 0;
magnetic = 5;
x = 0;
y = 150;
},
{
angle = 0;
isGlobal = 0;
magnetic = 5;
x = 0;
y = 75;
},
{
angle = 90;
isGlobal = 0;
magnetic = 5;
x = 550;
y = 0;
}
);
};
width = 800;
}
);
unicode = 65;
},
{
glyphname = B;
lastChange = "2021-08-08 09:50:59 +0000";
layers = (
{
layerId = master01;
shapes = (
{
closed = 1;
nodes = (
(455,0,ls),
(590,0,o),
(700,110,o),
(700,245,cs),
(700,359,o),
(622,455,o),
(516,482,c),
(525,494,o),
(530,509,o),
(530,525,cs),
(530,566,o),
(496,600,o),
(455,600,cs),
(100,600,l),
(100,0,l)
);
},
{
closed = 1;
nodes = (
(140,40,l),
(140,450,l),
(455,450,ls),
(568,450,o),
(660,359,o),
(660,246,cs),
(660,133,o),
(568,40,o),
(455,40,cs)
);
},
{
closed = 1;
nodes = (
(140,560,l),
(455,560,ls),
(475,560,o),
(491,544,o),
(491,525,cs),
(491,505,o),
(475,490,o),
(455,490,cs),
(140,490,l)
);
}
);
userData = {
com.typemytype.robofont.guides = (
{
angle = 0;
isGlobal = 0;
magnetic = 5;
x = 0;
y = 300;
},
{
angle = 0;
isGlobal = 0;
magnetic = 5;
x = 0;
y = 450;
},
{
angle = 0;
isGlobal = 0;
magnetic = 5;
x = 0;
y = 560;
},
{
angle = 0;
isGlobal = 0;
magnetic = 5;
x = 0;
y = 490;
},
{
angle = 90;
isGlobal = 0;
magnetic = 5;
x = 40;
y = 0;
},
{
angle = 90;
isGlobal = 0;
magnetic = 5;
x = 225;
y = 0;
}
);
};
width = 801;
}
);
unicode = 66;
},
{
glyphname = C;
lastChange = "2021-08-08 09:50:59 +0000";
layers = (
{
layerId = master01;
shapes = (
{
closed = 1;
nodes = (
(700,0,l),
(700,0,o),
(700,40,o),
(700,40,c),
(400,40,ls),
(256,40,o),
(140,156,o),
(140,300,cs),
(140,444,o),
(256,560,o),
(400,560,cs),
(700,560,l),
(700,560,o),
(700,600,o),
(700,600,c),
(400,600,ls),
(234,600,o),
(100,466,o),
(100,300,cs),
(100,134,o),
(234,0,o),
(400,0,cs)
);
}
);
userData = {
com.typemytype.robofont.guides = (
{
angle = 0;
isGlobal = 0;
magnetic = 5;
x = 0;
y = 300;
},
{
angle = 90;
isGlobal = 0;
magnetic = 5;
x = 40;
y = 0;
},
{
angle = 90;
isGlobal = 0;
magnetic = 5;
x = 525;
y = 0;
}
);
};
width = 833;
}
);
unicode = 67;
},
{
glyphname = D;
lastChange = "2021-08-08 09:50:59 +0000";
layers = (
{
layerId = master01;
shapes = (
{
closed = 1;
nodes = (
(99,600,o),
(100,0,o),
(100,0,c),
(400,0,ls),
(566,0,o),
(700,134,o),
(700,300,cs),
(700,466,o),
(566,600,o),
(400,600,cs),
(100,600,ls)
);
},
{
closed = 1;
nodes = (
(544,560,o),
(660,444,o),
(660,300,cs),
(660,156,o),
(544,40,o),
(400,40,cs),
(140,40,l),
(140,560,l),
(400,560,ls)
);
}
);
userData = {
com.typemytype.robofont.guides = (
{
angle = 0;
isGlobal = 0;
magnetic = 5;
x = 0;
y = 300;
}
);
};
width = 833;
}
);
unicode = 68;
},
{
glyphname = E;
lastChange = "2021-08-08 09:50:59 +0000";
layers = (
{
layerId = master01;
shapes = (
{
closed = 1;
nodes = (
(700,600,l),
(700,600,o),
(700,560,o),
(700,560,c),
(140,560,l),
(140,560,o),
(140,470,o),
(140,470,c),
(700,470,l),
(700,470,o),
(700,430,o),
(700,430,c),
(140,430,l),
(140,430,o),
(140,40,o),
(140,40,c),
(700,40,l),
(700,40,o),
(700,0,o),
(700,0,c),
(100,0,l),
(100,600,l)
);
}
);
userData = {
com.typemytype.robofont.guides = (
{
angle = 0;
isGlobal = 0;
magnetic = 5;
x = 0;
y = 560;
},
{
angle = 0;
isGlobal = 0;
magnetic = 5;
x = 0;
y = 40;
},
{
angle = 0;
isGlobal = 0;
magnetic = 5;
x = 0;
y = 470;
},
{
angle = 0;
isGlobal = 0;
magnetic = 5;
x = 0;
y = 430;
},
{
angle = 90;
isGlobal = 0;
magnetic = 5;
x = 40;
y = 0;
}
);
};
width = 833;
}
);
unicode = 69;
},
{
glyphname = G;
lastChange = "2021-08-08 09:50:59 +0000";
layers = (
{
layerId = master01;
shapes = (
{
closed = 1;
nodes = (
(700,300,l),
(700,293,ls),
(697,130,o),
(564,-1,o),
(400,-1,cs),
(234,-1,o),
(100,133,o),
(100,299,cs),
(100,465,o),
(234,599,o),
(400,599,cs),
(455,599,o),
(506,584,o),
(550,559,c),
(550,513,l),
(507,544,o),
(457,560,o),
(400,560,cs),
(256,560,o),
(140,444,o),
(140,300,cs),
(140,156,o),
(256,40,o),
(400,40,cs),
(530,40,o),
(638,135,o),
(657,260,c),
(550,260,l),
(550,300,l)
);
}
);
width = 833;
}
);
unicode = 71;
},
{
glyphname = H;
lastChange = "2021-08-08 09:50:59 +0000";
layers = (
{
layerId = master01;
shapes = (
{
closed = 1;
nodes = (
(100,600,l),
(100,600,o),
(140,600,o),
(140,600,c),
(140,130,l),
(140,130,o),
(660,130,o),
(660,130,c),
(660,600,l),
(660,600,o),
(700,600,o),
(700,600,c),
(700,0,l),
(700,0,o),
(660,0,o),
(660,0,c),
(660,90,l),
(660,90,o),
(140,90,o),
(140,90,c),
(140,0,l),
(100,0,l)
);
}
);
userData = {
com.typemytype.robofont.guides = (
{
angle = 0;
isGlobal = 0;
magnetic = 5;
x = 0;
y = 95;
},
{
angle = 0;
isGlobal = 0;
magnetic = 5;
x = 0;
y = 55;
},
{
angle = 0;
isGlobal = 0;
magnetic = 5;
x = 0;
y = 130;
},
{
angle = 90;
isGlobal = 0;
magnetic = 5;
x = 40;
y = 0;
},
{
angle = 90;
isGlobal = 0;
magnetic = 5;
x = 560;
y = 0;
}
);
};
width = 833;
}
);
unicode = 72;
},
{
glyphname = I;
layers = (
{
layerId = master01;
shapes = (
{
closed = 1;
nodes = (
(140,0,l),
(140,600,l),
(100,600,l),
(100,0,l)
);
}
);
userData = {
com.typemytype.robofont.guides = (
{
angle = 90;
isGlobal = 0;
magnetic = 5;
x = 40;
y = 0;
}
);
};
width = 239;
}
);
unicode = 73;
},
{
glyphname = J;
lastChange = "2021-08-08 09:50:59 +0000";
layers = (
{
layerId = master01;
shapes = (
{
closed = 1;
nodes = (
(196,81,o),
(272,40,o),
(358,40,cs),
(502,40,o),
(618,156,o),
(618,300,cs),
(618,600,l),
(618,600,o),
(658,600,o),
(658,600,c),
(658,299,ls),
(658,133,o),
(524,-1,o),
(358,-1,cs),
(248,-1,o),
(152,58,o),
(100,145,c),
(100,145,o),
(149,145,c)
);
}
);
width = 833;
}
);
unicode = 74;
},
{
glyphname = K;
lastChange = "2021-08-08 09:50:59 +0000";
layers = (
{
layerId = master01;
shapes = (
{
closed = 1;
nodes = (
(100,0,l),
(103,4,o),
(240,141,o),
(383,284,c),
(700,0,l),
(700,50,l),
(412,313,l),
(558,459,o),
(700,600,o),
(700,600,c),
(650,600,l),
(140,100,l),
(140,600,l),
(100,600,l)
);
}
);
width = 833;
}
);
unicode = 75;
},
{
glyphname = L;
layers = (
{
layerId = master01;
shapes = (
{
closed = 1;
nodes = (
(700,0,l),
(700,40,l),
(140,40,l),
(140,600,l),
(100,600,l),
(100,0,l)
);
}
);
userData = {
com.typemytype.robofont.guides = (
{
angle = 0;
isGlobal = 0;
magnetic = 5;
x = 0;
y = 40;
},
{
angle = 90;
isGlobal = 0;
magnetic = 5;
x = 40;
y = 0;
}
);
};
width = 833;
}
);
unicode = 76;
},
{
glyphname = M;
lastChange = "2021-08-08 09:50:59 +0000";
layers = (
{
layerId = master01;
shapes = (
{
closed = 1;
nodes = (
(100,600,l),
(100,600,o),
(400,450,o),
(400,450,c),
(700,600,l),
(700,600,o),
(700,0,o),
(700,0,c),
(660,0,l),
(660,0,o),
(660,530,o),
(660,530,c),
(400,400,l),
(400,400,o),
(140,530,o),
(140,530,c),
(140,0,l),
(100,0,l)
);
}
);
userData = {
com.typemytype.robofont.guides = (
{
angle = 0;
isGlobal = 0;
magnetic = 5;
x = 0;
y = 450;
},
{
angle = 90;
isGlobal = 0;
magnetic = 5;
x = 40;
y = 0;
},
{
angle = 90;
isGlobal = 0;
magnetic = 5;
x = 560;
y = 0;
}
);
};
width = 833;
}
);
unicode = 77;
},
{
glyphname = N;
layers = (
{
layerId = master01;
shapes = (
{
closed = 1;
nodes = (
(140,0,l),
(140,503,l),
(700,0,l),
(700,600,l),
(660,600,l),
(660,87,l),
(100,600,l),
(100,0,l)
);
}
);
userData = {
com.typemytype.robofont.guides = (
{
angle = 0;
isGlobal = 0;
magnetic = 5;
x = 0;
y = 550;
},
{
angle = 90;
isGlobal = 0;
magnetic = 5;
x = 40;
y = 0;
},
{
angle = 90;
isGlobal = 0;
magnetic = 5;
x = 560;
y = 0;
}
);
};
width = 833;
}
);
unicode = 78;
},
{
glyphname = O;
layers = (
{
layerId = master01;
shapes = (
{
closed = 1;
nodes = (
(100,132,o),
(234,-2,o),
(400,-2,cs),
(566,-2,o),
(700,132,o),
(700,298,cs),
(700,464,o),
(566,598,o),
(400,598,cs),
(234,598,o),
(100,464,o),
(100,298,cs)
);
},
{
closed = 1;
nodes = (
(140,443,o),
(256,559,o),
(400,559,cs),
(544,559,o),
(660,443,o),
(660,299,cs),
(660,155,o),
(544,39,o),
(400,39,cs),
(256,39,o),
(140,155,o),
(140,299,cs)
);
}
);
width = 833;
}
);
unicode = 79;
},
{
glyphname = P;
lastChange = "2021-08-08 09:50:37 +0000";
layers = (
{
layerId = master01;
shapes = (
{
closed = 1;
nodes = (
(140,0,l),
(140,150,l),
(475,150,ls),
(599,150,o),
(700,251,o),
(700,375,cs),
(700,499,o),
(599,600,o),
(475,600,cs),
(100,600,l),
(100,0,l)
);
},
{
closed = 1;
nodes = (
(140,560,l),
(475,560,ls),
(578,560,o),
(661,477,o),
(661,375,cs),
(661,273,o),
(578,190,o),
(475,190,cs),
(140,190,l)
);
}
);
userData = {
com.typemytype.robofont.guides = (
{
angle = 0;
isGlobal = 0;
magnetic = 5;
x = 0;
y = 560;
},
{
angle = 0;
isGlobal = 0;
magnetic = 5;
x = 0;
y = 150;
},
{
angle = 90;
isGlobal = 0;
magnetic = 5;
x = 40;
y = 0;
}
);
};
width = 833;
}
);
unicode = 80;
},
{
glyphname = Q;
layers = (
{
layerId = master01;
shapes = (
{
closed = 1;
nodes = (
(100,133,o),
(234,-1,o),
(400,-1,cs),
(468,-1,o),
(531,21,o),
(581,59,c),
(650,0,l),
(700,0,l),
(606,80,l),
(664,135,o),
(700,212,o),
(700,299,cs),
(700,465,o),
(566,599,o),
(400,599,cs),
(234,599,o),
(100,465,o),
(100,299,cs)
);
},
{
closed = 1;
nodes = (
(475,150,l),
(549,87,l),
(507,57,o),
(455,40,o),
(400,40,cs),
(256,40,o),
(140,156,o),
(140,300,cs),
(140,444,o),
(256,560,o),
(400,560,cs),
(544,560,o),
(660,444,o),
(660,300,cs),
(660,223,o),
(627,154,o),
(575,107,c),
(525,150,l)
);
}
);
width = 833;
}
);
unicode = 81;
},
{
glyphname = R;
lastChange = "2021-08-08 09:50:59 +0000";
layers = (
{
layerId = master01;
shapes = (
{
closed = 1;
nodes = (
(520,154,l),
(622,175,o),
(700,266,o),
(700,375,cs),
(700,499,o),
(599,600,o),
(475,600,cs),
(100,600,l),
(100,0,l),
(140,0,l),
(140,150,l),
(470,150,l),
(645,0,l),
(700,0,l)
);
},
{
closed = 1;
nodes = (
(140,190,l),
(140,560,l),
(475,560,ls),
(578,560,o),
(661,477,o),
(661,375,cs),
(661,273,o),
(578,190,o),
(475,190,cs)
);
}
);
userData = {
com.typemytype.robofont.guides = (
{
angle = 90;
isGlobal = 0;
magnetic = 5;
x = 550;
y = 0;
}
);
};
width = 833;
}
);
unicode = 82;
},
{
glyphname = S;
lastChange = "2021-08-08 09:50:06 +0000";
layers = (
{
layerId = master01;
shapes = (
{
closed = 1;
nodes = (
(455,0,ls),
(590,0,o),
(700,110,o),
(700,245,cs),
(700,380,o),
(590,490,o),
(455,490,cs),
(175,490,ls),
(156,490,o),
(140,506,o),
(140,525,cs),
(140,544,o),
(156,560,o),
(175,560,cs),
(400,560,l),
(400,600,l),
(175,600,ls),
(134,600,o),
(100,566,o),
(100,525,cs),
(100,484,o),
(134,450,o),
(175,450,cs),
(455,450,ls),
(568,450,o),
(660,358,o),
(660,245,cs),
(660,132,o),
(568,40,o),
(455,40,cs),
(100,40,l),
(100,0,l)
);
}
);
userData = {
com.typemytype.robofont.guides = (
{
angle = 0;
isGlobal = 0;
magnetic = 5;
x = 0;
y = 450;
},
{
angle = 0;
isGlobal = 0;
magnetic = 5;
x = 0;
y = 560;
},
{
angle = 0;
isGlobal = 0;
magnetic = 5;
x = 0;
y = 490;
},
{
angle = 0;
isGlobal = 0;
magnetic = 5;
x = 0;
y = 40;
},
{
angle = 90;
isGlobal = 0;
magnetic = 5;
x = 375;
y = 0;
},
{
angle = 90;
isGlobal = 0;
magnetic = 5;
x = 40;
y = 0;
}
);
};
width = 833;
}
);
unicode = 83;
},
{
glyphname = T;
layers = (
{
layerId = master01;
shapes = (
{
closed = 1;
nodes = (
(380,560,l),
(380,0,l),
(419,0,l),
(419,560,l),
(700,560,l),
(700,600,l),
(100,600,l),
(100,560,l)
);
}
);
userData = {
com.typemytype.robofont.guides = (
{
angle = 0;
isGlobal = 0;
magnetic = 5;
x = 0;
y = 560;
},
{
angle = 90;
isGlobal = 0;
magnetic = 5;
x = 280;
y = 0;
},
{
angle = 90;
isGlobal = 0;
magnetic = 5;
x = 320;
y = 0;
}
);
};
width = 833;
}
);
unicode = 84;
},
{
glyphname = U;
lastChange = "2021-08-08 09:50:59 +0000";
layers = (
{
layerId = master01;
shapes = (
{
closed = 1;
nodes = (
(700,600,l),
(700,600,o),
(660,600,o),
(660,600,c),
(660,300,ls),
(660,156,o),
(544,40,o),
(400,40,cs),
(256,40,o),
(140,156,o),
(140,300,cs),
(140,600,l),
(140,600,o),
(100,600,o),
(100,600,c),
(100,300,ls),
(100,134,o),
(234,0,o),
(400,0,cs),
(566,0,o),
(700,134,o),
(700,300,cs)
);
}
);
width = 833;
}
);
unicode = 85;
},
{
glyphname = V;
lastChange = "2021-08-08 09:50:59 +0000";
layers = (
{
layerId = master01;
shapes = (
{
closed = 1;
nodes = (
(398,1,l),
(700,600,l),
(700,600,o),
(650,600,o),
(650,600,c),
(400,100,l),
(400,100,o),
(150,600,o),
(100,600,l)
);
}
);
userData = {
com.typemytype.robofont.guides = (
{
angle = 90;
isGlobal = 0;
magnetic = 5;
x = 50;
y = 0;
},
{
angle = 90;
isGlobal = 0;
magnetic = 5;
x = 550;
y = 0;
}
);
};
width = 833;
}
);
unicode = 86;
},
{
glyphname = W;
lastChange = "2021-08-08 09:50:59 +0000";
layers = (
{
layerId = master01;
shapes = (
{
closed = 1;
nodes = (
(700,603,o),
(550,0,o),
(550,0,c),
(550,0,o),
(400,229,o),
(400,229,c),
(250,0,l),
(250,0,o),
(100,600,o),
(100,600,c),
(140,600,l),
(140,600,o),
(267,99,o),
(267,99,c),
(400,299,l),
(400,299,o),
(530,100,o),
(530,100,c),
(660,600,l),
(660,600,o),
(700,597,o),
(700,600,cs)
);
}
);
width = 833;
}
);
unicode = 87;
},
{
glyphname = X;
layers = (
{
layerId = master01;
shapes = (
{
closed = 1;
nodes = (
(100,0,o),
(234,150,o),
(371,300,c),
(234,450,o),
(100,600,o),
(100,600,c),
(100,599,o),
(150,600,o),
(150,600,c),
(400,330,l),
(528,470,o),
(650,600,o),
(650,600,c),
(700,600,l),
(428,299,l),
(700,0,l),
(650,0,l),
(650,0,o),
(529,128,o),
(400,269,c),
(150,0,l),
(100,0,l)
);
}
);
userData = {
com.typemytype.robofont.guides = (
{
angle = 90;
isGlobal = 0;
magnetic = 5;
x = 50;
y = 0;
},
{
angle = 90;
isGlobal = 0;
magnetic = 5;
x = 550;
y = 0;
}
);
};
width = 833;
}
);
unicode = 88;
},
{
glyphname = Y;
lastChange = "2021-08-08 09:50:59 +0000";
layers = (
{
layerId = master01;
shapes = (
{
closed = 1;
nodes = (
(100,601,o),
(145,601,o),
(145,601,c),
(400,326,l),
(400,326,o),
(655,601,o),
(655,601,c),
(700,601,l),
(700,601,o),
(420,289,o),
(420,289,c),
(420,1,l),
(420,1,o),
(380,1,o),
(380,1,c),
(380,289,l),
(380,289,o),
(100,599,o),
(100,600,cs)
);
}
);
width = 833;
}
);
unicode = 89;
},
{
glyphname = Z;
layers = (
{
layerId = master01;
shapes = (
{
closed = 1;
nodes = (
(250,560,l),
(473,560,l),
(100,0,l),
(700,0,l),
(700,40,l),
(176,40,l),
(550,600,l),
(250,600,l)
);
}
);
userData = {
com.typemytype.robofont.guides = (
{
angle = 0;
isGlobal = 0;
magnetic = 5;
x = 0;
y = 560;
},
{
angle = 0;
isGlobal = 0;
magnetic = 5;
x = 0;
y = 40;
},
{
angle = 90;
isGlobal = 0;
magnetic = 5;
x = 50;
y = 0;
},
{
angle = 90;
isGlobal = 0;
magnetic = 5;
x = 400;
y = 0;
}
);
};
width = 833;
}
);
unicode = 90;
},
{
glyphname = F;
layers = (
{
layerId = master01;
shapes = (
{
closed = 1;
nodes = (
(100,0,l),
(100,600,l),
(700,600,l),
(700,560,l),
(140,560,l),
(140,170,l),
(700,170,l),
(700,130,l),
(140,130,l),
(140,0,l)
);
}
);
userData = {
com.typemytype.robofont.guides = (
{
angle = 0;
isGlobal = 0;
magnetic = 5;
x = 0;
y = 560;
},
{
angle = 0;
isGlobal = 0;
magnetic = 5;
x = 0;
y = 170;
},
{
angle = 0;
isGlobal = 0;
magnetic = 5;
x = 0;
y = 470;
},
{
angle = 0;
isGlobal = 0;
magnetic = 5;
x = 0;
y = 130;
},
{
angle = 90;
isGlobal = 0;
magnetic = 5;
x = 40;
y = 0;
}
);
};
width = 833;
}
);
unicode = 70;
},
{
glyphname = comma;
lastChange = "2021-08-08 09:50:59 +0000";
layers = (
{
layerId = master01;
shapes = (
{
closed = 1;
nodes = (
(120,-36,o),
(100,-14,o),
(100,0,qs),
(100,15,o),
(119,36,o),
(134,36,qs),
(151,36,o),
(175,9,o),
(175,-10,qs),
(175,-68,o),
(110,-101,q),
(99,-79,l),
(135,-62,o),
(135,-38,q)
);
}
);
width = 301;
}
);
unicode = 44;
},
{
glyphname = period;
lastChange = "2021-08-08 09:50:59 +0000";
layers = (
{
layerId = master01;
shapes = (
{
closed = 1;
nodes = (
(152,36,o),
(172,16,o),
(172,1,qs),
(172,-15,o),
(152,-37,o),
(137,-37,qs),
(122,-37,o),
(102,-15,o),
(102,1,qs),
(102,16,o),
(122,36,o),
(137,36,qs)
);
}
);
width = 301;
}
);
unicode = 46;
},
{
glyphname = a;
lastChange = "2021-09-02 07:07:41 +0000";
layers = (
{
layerId = master01;
shapes = (
{
closed = 1;
nodes = (
(530,0,l),
(530,430,l),
(490,430,l),
(490,0,l)
);
},
{
closed = 1;
nodes = (
(530,0,l),
(530,0,o),
(530,40,o),
(530,40,c),
(315,40,ls),
(218,40,o),
(140,118,o),
(140,215,cs),
(140,312,o),
(218,390,o),
(315,390,cs),
(513,390,l),
(513,390,o),
(511,430,o),
(511,430,c),
(315,430,ls),
(196,430,o),
(100,334,o),
(100,215,cs),
(100,96,o),
(196,0,o),
(315,0,cs)
);
},
{
closed = 1;
nodes = (
(180,215,l),
(179,142,o),
(246,80,o),
(315,80,cs),
(530,80,l),
(530,80,o),
(530,120,o),
(530,120,c),
(316,120,ls),
(259,120,o),
(222,160,o),
(220,215,c)
);
}
);
userData = {
com.typemytype.robofont.guides = (
{
angle = 0;
isGlobal = 0;
magnetic = 5;
x = 0;
y = 390;
},
{
angle = 0;
isGlobal = 0;
magnetic = 5;
x = 0;
y = 80;
},
{
angle = 0;
isGlobal = 0;
magnetic = 5;
x = 0;
y = 120;
},
{
angle = 90;
isGlobal = 0;
magnetic = 5;
x = 530;
y = 0;
},
{
angle = 90;
isGlobal = 0;
magnetic = 5;
x = 490;
y = 0;
}
);
};
width = 630;
}
);
unicode = 97;
},
{
glyphname = b;
lastChange = "2021-09-02 07:07:41 +0000";
layers = (
{
layerId = master01;
shapes = (
{
closed = 1;
nodes = (
(140,430,l),
(140,621,l),
(100,620,l),
(100,0,l),
(315,0,ls),
(434,0,o),
(530,96,o),
(530,215,cs),
(530,334,o),
(434,430,o),
(315,430,cs)
);
},
{
closed = 1;
nodes = (
(450,215,l),
(451,288,o),
(384,350,o),
(315,350,cs),
(140,350,l),
(140,390,l),
(315,390,ls),
(412,390,o),
(490,312,o),
(490,215,cs),
(490,118,o),
(412,40,o),
(315,40,cs),
(140,40,l),
(140,310,l),
(314,310,ls),
(371,310,o),
(408,270,o),
(410,215,c)
);
}
);
width = 630;
}
);
unicode = 98;
},
{
glyphname = o;
lastChange = "2021-09-02 07:08:51 +0000";
layers = (
{
layerId = master01;
shapes = (
{
closed = 1;
nodes = (
(218,40,o),
(140,118,o),
(140,215,cs),
(140,312,o),
(218,390,o),
(315,390,cs),
(412,390,o),
(490,312,o),
(490,215,cs),
(490,118,o),
(412,40,o),
(315,40,cs)
);
},
{
closed = 1;
nodes = (
(248,79,o),
(179,142,o),
(180,215,c),
(220,215,l),
(222,160,o),
(259,120,o),
(316,120,c),
(316,80,l)
);
},
{
closed = 1;
nodes = (
(434,0,o),
(530,96,o),
(530,215,cs),
(530,334,o),
(434,430,o),
(315,430,cs),
(196,430,o),
(100,334,o),
(100,215,cs),
(100,96,o),
(196,0,o),
(315,0,cs)
);
}
);
width = 630;
}
);
unicode = 111;
},
{
glyphname = d;
lastChange = "2021-09-02 07:07:41 +0000";
layers = (
{
layerId = master01;
shapes = (
{
closed = 1;
nodes = (
(196,430,o),
(100,334,o),
(100,215,cs),
(100,96,o),
(196,0,o),
(315,0,cs),
(530,0,l),
(530,620,l),
(490,621,l),
(490,430,l),
(315,430,ls)
);
},
{
closed = 1;
nodes = (
(222,270,o),
(259,310,o),
(316,310,cs),
(490,310,l),
(490,40,l),
(315,40,ls),
(218,40,o),
(140,118,o),
(140,215,cs),
(140,312,o),
(218,390,o),
(315,390,cs),
(490,390,l),
(490,350,l),
(315,350,ls),
(246,350,o),
(179,288,o),
(180,215,c),
(220,215,l)
);
}
);
width = 630;
}
);
unicode = 100;
},
{
glyphname = c;
lastChange = "2021-09-02 07:07:41 +0000";
layers = (
{
layerId = master01;
shapes = (
{
closed = 1;
nodes = (
(530,0,l),
(530,0,o),
(530,40,o),
(530,40,c),
(315,40,ls),
(218,40,o),
(140,118,o),
(140,215,cs),
(140,312,o),
(218,390,o),
(315,390,cs),
(530,390,l),
(530,390,o),
(530,430,o),
(530,430,c),
(315,430,ls),
(196,430,o),
(100,334,o),
(100,215,cs),
(100,96,o),
(196,0,o),
(315,0,cs)
);
},
{
closed = 1;
nodes = (
(180,215,l),
(179,142,o),
(246,80,o),
(315,80,cs),
(530,80,l),
(530,80,o),
(530,120,o),
(530,120,c),
(316,120,ls),
(259,120,o),
(222,160,o),
(220,215,c)
);
}
);
width = 630;
}
);
unicode = 99;
},
{
glyphname = e;
lastChange = "2021-09-02 07:07:41 +0000";
layers = (
{
layerId = master01;
shapes = (
{
closed = 1;
nodes = (
(490,312,o),
(412,390,o),
(315,390,cs),
(218,390,o),
(140,312,o),
(140,215,cs),
(140,118,o),
(218,40,o),
(315,40,cs),
(530,40,l),
(530,40,o),
(530,0,o),
(530,0,c),
(315,0,ls),
(196,0,o),
(100,96,o),
(100,215,cs),
(100,334,o),
(196,430,o),
(315,430,cs),
(434,430,o),
(530,334,o),
(530,215,c),
(490,215,l)
);
},
{
closed = 1;
nodes = (
(221,121,l),
(248,94,o),
(280,80,o),
(315,80,cs),
(530,80,l),
(530,80,o),
(530,120,o),
(530,120,c),
(316,120,ls),
(287,120,o),
(265,128,o),
(248,146,c)
);
},
{
closed = 1;
nodes = (
(126,255,l),
(126,255,o),
(519,255,o),
(519,255,c),
(530,215,l),
(126,215,l)
);
}
);
width = 630;
}
);
unicode = 101;
},
{
glyphname = f;
lastChange = "2021-09-02 07:07:41 +0000";
layers = (
{
layerId = master01;
shapes = (
{
closed = 1;
nodes = (
(140,312,o),
(218,390,o),
(315,390,cs),
(530,390,l),
(530,430,l),
(315,430,ls),
(196,430,o),
(100,334,o),
(100,215,cs),
(100,-430,l),
(140,-430,l),
(140,0,l),
(530,0,l),
(530,40,l),
(140,40,l),
(140,215,ls)
);
},
{
closed = 1;
nodes = (
(222,270,o),
(259,310,o),
(316,310,cs),
(530,310,l),
(530,350,l),
(315,350,ls),
(246,350,o),
(179,288,o),
(180,215,c),
(220,215,l)
);
}
);
width = 630;
}
);
unicode = 102;
},
{
glyphname = g;
lastChange = "2021-09-02 07:07:41 +0000";
layers = (
{
layerId = master01;
shapes = (
{
closed = 1;
nodes = (
(490,0,l),
(490,-215,ls),
(490,-312,o),
(412,-390,o),
(315,-390,cs),
(218,-390,o),
(140,-312,o),
(140,-215,cs),
(140,-142,o),
(183,-81,o),
(246,-54,c),
(226,-19,l),
(152,-53,o),
(100,-128,o),
(100,-215,cs),
(100,-334,o),
(196,-430,o),
(315,-430,cs),
(434,-430,o),
(530,-334,o),
(530,-215,cs),
(530,430,l),
(315,430,ls),
(196,430,o),
(100,334,o),
(100,215,cs),
(100,96,o),
(196,0,o),
(315,0,cs)
);
},
{
closed = 1;
nodes = (
(180,215,l),
(179,142,o),
(246,80,o),
(315,80,cs),
(490,80,l),
(490,40,l),
(315,40,ls),
(218,40,o),
(140,118,o),
(140,215,cs),
(140,312,o),
(218,390,o),
(315,390,cs),
(490,390,l),
(490,120,l),
(316,120,ls),
(259,120,o),
(222,160,o),
(220,215,c)
);
}
);
width = 630;
}
);
unicode = 103;
},
{
glyphname = h;
lastChange = "2021-09-02 07:07:41 +0000";
layers = (
{
layerId = master01;
shapes = (
{
closed = 1;
nodes = (
(530,324,o),
(434,430,o),
(315,430,cs),
(140,430,l),
(140,621,l),
(100,620,l),
(100,0,l),
(140,0,l),
(140,310,l),
(314,310,ls),
(371,310,o),
(408,270,o),
(410,215,c),
(450,215,l),
(451,288,o),
(384,350,o),
(315,350,cs),
(140,350,l),
(140,390,l),
(315,390,ls),
(412,390,o),
(490,312,o),
(490,215,cs),
(490,118,o),
(490,0,o),
(490,0,c),
(530,0,l),
(530,215,ls)
);
}
);
width = 630;
}
);
unicode = 104;
},
{
glyphname = i;
lastChange = "2021-09-02 07:07:41 +0000";
layers = (
{
layerId = master01;
shapes = (
{
closed = 1;
nodes = (
(100,514,o),
(114,500,o),
(131,500,cs),
(148,500,o),
(162,514,o),
(162,531,cs),
(162,548,o),
(148,562,o),
(131,562,cs),
(114,562,o),
(100,548,o),
(100,531,cs)
);
},
{
closed = 1;
nodes = (
(151,55,o),
(166,40,o),
(186,40,c),
(186,0,l),
(145,0,o),
(111,34,o),
(111,75,c),
(111,75,o),
(111,430,o),
(111,430,c),
(151,430,l),
(151,75,ls)
);
}
);
width = 286;
}
);
unicode = 105;
},
{
glyphname = j;
lastChange = "2021-09-02 07:07:41 +0000";
layers = (
{
layerId = master01;
shapes = (
{
closed = 1;
nodes = (
(135,430,l),
(135,430,o),
(175,430,o),
(175,430,c),
(175,-355,ls),
(175,-396,o),
(141,-430,o),
(100,-430,c),
(100,-390,l),
(120,-390,o),
(135,-375,o),
(135,-355,cs)
);
},
{
closed = 1;
nodes = (
(124,514,o),
(138,500,o),
(155,500,cs),
(172,500,o),
(186,514,o),
(186,531,cs),
(186,548,o),
(172,562,o),
(155,562,cs),
(138,562,o),
(124,548,o),
(124,531,cs)
);
}
);
width = 286;
}
);
unicode = 106;
},
{
glyphname = k;
lastChange = "2021-09-02 07:07:40 +0000";
layers = (
{
layerId = master01;
shapes = (
{
closed = 1;
nodes = (
(100,1,l),
(102,3,o),
(201,101,o),
(303,204,c),
(530,0,l),
(530,52,l),
(332,235,l),
(437,339,o),
(530,430,o),
(530,430,c),
(475,430,l),
(140,95,l),
(140,431,l),
(100,431,l)
);
}
);
width = 630;
}
);
unicode = 107;
},
{
glyphname = l;
lastChange = "2021-09-02 07:07:40 +0000";
layers = (
{
layerId = master01;
shapes = (
{
closed = 1;
nodes = (
(141,55,o),
(156,40,o),
(176,40,c),
(176,0,l),
(135,0,o),
(100,35,o),
(100,76,cs),
(101,620,l),
(141,620,l),
(140,620,o),
(141,620,o),
(141,75,ls)
);
}
);
userData = {
com.typemytype.robofont.guides = (
{
angle = 0;
isGlobal = 0;
magnetic = 5;
x = 0;
y = 150;
},
{
angle = 90;
isGlobal = 0;
magnetic = 5;
x = 140;
y = 0;
}
);
};
width = 276;
}
);
unicode = 108;
},
{
glyphname = p;
lastChange = "2021-09-02 07:07:41 +0000";
layers = (
{
layerId = master01;
shapes = (
{
closed = 1;
nodes = (
(100,-190,l),
(140,-190,l),
(140,0,l),
(315,0,ls),
(434,0,o),
(530,96,o),
(530,215,cs),
(530,334,o),
(434,430,o),
(315,430,cs),
(100,430,l)
);
},
{
closed = 1;
nodes = (
(450,215,l),
(451,288,o),
(384,350,o),
(315,350,cs),
(140,350,l),
(140,390,l),
(315,390,ls),
(412,390,o),
(490,312,o),
(490,215,cs),
(490,118,o),
(412,40,o),
(315,40,cs),
(140,40,l),
(140,310,l),
(314,310,ls),
(371,310,o),
(408,270,o),
(410,215,c)
);
}
);
width = 630;
}
);
unicode = 112;
},
{
glyphname = q;
lastChange = "2021-09-02 07:07:41 +0000";
layers = (
{
layerId = master01;
shapes = (
{
closed = 1;
nodes = (
(490,-191,l),
(530,-191,l),
(530,430,l),
(315,430,ls),
(196,430,o),
(100,334,o),
(100,215,cs),
(100,96,o),
(196,0,o),
(315,0,cs),
(490,0,l)
);
},
{
closed = 1;
nodes = (
(179,142,o),
(246,80,o),
(315,80,cs),
(490,80,l),
(490,40,l),
(315,40,ls),
(218,40,o),
(140,118,o),
(140,215,cs),
(140,312,o),
(218,390,o),
(315,390,cs),
(490,390,l),
(490,120,l),
(316,120,ls),
(259,120,o),
(222,160,o),
(220,215,c),
(180,215,l)
);
}
);
width = 630;
}
);
unicode = 113;
},
{
glyphname = r;
lastChange = "2021-09-02 07:07:40 +0000";
layers = (
{
layerId = master01;
shapes = (
{
closed = 1;
nodes = (
(437,395,o),
(491,354,o),
(491,300,c),
(530,300,l),
(530,372,o),
(459,430,o),
(371,430,cs),
(258,430,ls),
(211,430,o),
(169,413,o),
(140,386,c),
(140,430,l),
(100,430,l),
(100,75,ls),
(100,34,o),
(134,0,o),
(175,0,c),
(175,40,l),
(155,40,o),
(140,55,o),
(140,75,cs),
(140,312,l),
(147,360,o),
(197,395,o),
(258,395,cs),
(371,395,ls)
);
}
);
width = 630;
}
);
unicode = 114;
},
{
glyphname = t;
lastChange = "2021-09-02 07:07:40 +0000";
layers = (
{
layerId = master01;
shapes = (
{
closed = 1;
nodes = (
(192,620,l),
(152,620,l),
(152,75,ls),
(152,34,o),
(186,0,o),
(227,0,c),
(227,40,l),
(207,40,o),
(192,55,o),
(192,75,cs)
);
},
{
closed = 1;
nodes = (
(270,390,l),
(270,430,l),
(100,430,l),
(100,390,l)
);
}
);
userData = {
com.typemytype.robofont.guides = (
{
angle = 0;
isGlobal = 0;
magnetic = 5;
x = 0;
y = 500;
},
{
angle = 0;
isGlobal = 0;
magnetic = 5;
x = 0;
y = 540;
}
);
};
width = 370;
}
);
unicode = 116;
},
{
glyphname = u;
lastChange = "2021-09-02 07:07:31 +0000";
layers = (
{
layerId = master01;
shapes = (
{
closed = 1;
nodes = (
(100,96,o),
(196,0,o),
(315,0,cs),
(434,0,o),
(530,96,o),
(530,215,cs),
(530,430,l),
(530,430,o),
(490,430,o),
(490,430,c),
(490,215,ls),
(490,118,o),
(412,40,o),
(315,40,cs),
(218,40,o),
(140,118,o),
(140,215,cs),
(140,430,l),
(140,430,o),
(100,430,o),
(100,430,c),
(100,215,ls)
);
},
{
closed = 1;
nodes = (
(260,122,o),
(220,159,o),
(220,216,cs),
(220,430,l),
(220,430,o),
(180,430,o),
(180,430,c),
(180,215,ls),
(180,146,o),
(242,79,o),
(315,80,c),
(315,120,l)
);
}
);
width = 630;
}
);
unicode = 117;
},
